<svg xmlns="http://www.w3.org/2000/svg" width="200" height="200" viewBox="0 0 200 200" version="1.1">
	<path d="M 73.250 73.098 C 53.912 89.817, 49 94.559, 49 96.509 C 49 99.695, 53.104 102.553, 55.683 101.163 C 56.682 100.624, 66.950 92.048, 78.500 82.106 C 90.050 72.164, 99.815 64.135, 100.199 64.264 C 100.584 64.394, 109.548 71.925, 120.119 81 C 130.691 90.075, 140.824 98.574, 142.638 99.886 C 145.782 102.163, 146.052 102.196, 148.467 100.613 C 153.412 97.373, 152.052 94.952, 139.008 83.775 L 127.016 73.500 127.008 64.321 C 126.999 54.403, 125.950 52, 121.629 52 C 118.237 52, 117 53.925, 117 59.200 C 117 61.840, 116.723 64, 116.384 64 C 116.045 64, 112.722 61.300, 109 58 C 104.618 54.115, 101.398 52.023, 99.866 52.067 C 98.277 52.111, 89.533 59.021, 73.250 73.098 M 84.500 82.137 C 76.800 88.793, 68.813 95.777, 66.750 97.659 L 63 101.081 63.015 122.290 C 63.024 133.956, 63.397 144.077, 63.844 144.782 C 64.451 145.739, 67.814 145.993, 77.079 145.782 L 89.500 145.500 89.779 132.250 L 90.058 119 100 119 L 109.942 119 110.221 132.250 L 110.500 145.500 122.921 145.782 C 132.186 145.993, 135.549 145.739, 136.156 144.782 C 136.603 144.077, 136.976 133.956, 136.985 122.290 L 137 101.081 133.250 97.659 C 120.338 85.879, 101.269 70.037, 100 70.037 C 99.175 70.037, 92.200 75.482, 84.500 82.137" stroke="none" fill="blue" fill-rule="evenodd"/>
</svg>